<svg width="60" height="38" viewBox="48.0385 40 191.9615 120" fill="none" xmlns="http://www.w3.org/2000/svg">
  <defs>
    <linearGradient id="paint1_linear" x1="40" y1="40" x2="160" y2="160" gradientUnits="userSpaceOnUse">
      <stop stop-color="#F97316"/>
      <stop offset="1" stop-color="#EA580C"/>
    </linearGradient>
  </defs>
  
  <!-- Logo Icon: Hexagonal Brain/Wave Hybrid -->
  <path d="M100 40L151.962 70V130L100 160L48.0385 130V70L100 40Z" fill="url(#paint1_linear)" fill-opacity="0.1" stroke="url(#paint1_linear)" stroke-width="2"/>
  <path d="M70 100C70 83.4315 83.4315 70 100 70C116.569 70 130 83.4315 130 100C130 116.569 116.569 130 100 130C83.4315 130 70 116.569 70 100Z" stroke="#F97316" stroke-width="4" stroke-linecap="round" stroke-dasharray="1 10"/>
  <path d="M85 100C85 91.7157 91.7157 85 100 85C108.284 85 115 91.7157 115 100C115 108.284 108.284 115 100 115C91.7157 115 85 108.284 85 100Z" fill="#F97316"/>
  
  <!-- Symphony Waves (Restored) -->
  <path d="M160 85C180 85 180 115 200 115C220 115 220 85 240 85" stroke="#F97316" stroke-width="2" stroke-linecap="round" opacity="0.5"/>
  <path d="M160 100C180 100 180 130 200 130C220 130 220 100 240 100" stroke="#F97316" stroke-width="3" stroke-linecap="round"/>
  <path d="M160 115C180 115 180 145 200 145C220 145 220 115 240 115" stroke="#F97316" stroke-width="2" stroke-linecap="round" opacity="0.5"/>
</svg>
